<?xml version="1.0" encoding="utf-8"?>
<!-- Generator: Adobe Illustrator 25.3.1, SVG Export Plug-In . SVG Version: 6.00 Build 0)  -->
<svg version="1.1" id="Calque_1" xmlns="http://www.w3.org/2000/svg" xmlns:xlink="http://www.w3.org/1999/xlink" x="0px" y="0px"
	 width="1355.7px" height="259.4px" viewBox="0 0 1355.7 259.4" style="enable-background:new 0 0 1355.7 259.4;"
	 xml:space="preserve">
<style type="text/css">
	.st0{fill:#FFFFFF;}
</style>
<g>
	<g>
		<path class="st0" d="M403.1,222.8c-1,5.2-3.3,9.1-6.8,11.8c-3.5,2.7-7.9,4-13.1,4c-3.7,0-6.9-0.6-9.7-1.8c-2.7-1.2-5-2.9-6.9-5.1
			c-1.9-2.2-3.3-4.7-4.2-7.7c-0.9-3-1.5-6.3-1.6-9.8c0-3.5,0.5-6.7,1.6-9.7c1.1-3,2.6-5.5,4.5-7.7c1.9-2.2,4.3-3.8,6.9-5
			c2.7-1.2,5.6-1.8,8.8-1.8c4.1,0,7.6,0.9,10.3,2.6c2.7,1.7,4.9,3.9,6.6,6.5c1.6,2.6,2.8,5.5,3.4,8.6c0.6,3.1,0.9,6.1,0.8,8.9H369
			c-0.1,2,0.2,4,0.7,5.8c0.5,1.8,1.4,3.5,2.6,4.9c1.2,1.4,2.7,2.5,4.6,3.4c1.9,0.8,4.1,1.3,6.6,1.3c3.2,0,5.8-0.7,7.9-2.2
			c2.1-1.5,3.5-3.8,4.1-6.8H403.1z M395.7,209.9c-0.1-1.8-0.5-3.5-1.2-5.1c-0.7-1.6-1.6-3-2.8-4.2c-1.2-1.2-2.6-2.1-4.2-2.8
			c-1.6-0.7-3.4-1-5.2-1c-2,0-3.8,0.3-5.4,1c-1.6,0.7-3,1.6-4.1,2.8c-1.1,1.2-2,2.6-2.7,4.2c-0.7,1.6-1.1,3.3-1.2,5.1H395.7z"/>
		<path class="st0" d="M411.7,191.1h7.2v7.4h0.2c1.6-2.9,3.7-5,6.3-6.4c2.5-1.4,5.5-2.1,8.9-2.1c3.1,0,5.6,0.4,7.7,1.3
			c2,0.8,3.7,2,4.9,3.5c1.3,1.5,2.1,3.3,2.7,5.4c0.5,2.1,0.8,4.4,0.8,6.9v30.6h-7.6v-31.5c0-2.9-0.8-5.2-2.5-6.8
			c-1.7-1.7-4-2.5-6.9-2.5c-2.3,0-4.4,0.4-6.1,1.1s-3.1,1.7-4.3,3.1c-1.1,1.3-2,2.9-2.6,4.6c-0.6,1.8-0.9,3.7-0.9,5.8v26.3h-7.7
			V191.1z"/>
		<path class="st0" d="M472.4,191.1h9.3v6.8h-9.3v28.9c0,0.9,0.1,1.6,0.2,2.2c0.1,0.5,0.4,1,0.9,1.3c0.4,0.3,1,0.5,1.8,0.6
			c0.7,0.1,1.7,0.1,2.9,0.1h3.5v6.8h-5.9c-2,0-3.7-0.1-5.1-0.4c-1.4-0.3-2.6-0.8-3.4-1.5c-0.9-0.7-1.5-1.7-1.9-3.1
			c-0.4-1.3-0.6-3.1-0.6-5.2v-29.6h-7.9v-6.8h7.9v-13.9h7.6V191.1z"/>
		<path class="st0" d="M489.8,191.1h7.2v9.8h0.2c1.9-3.8,4.1-6.6,6.8-8.4c2.7-1.8,6.1-2.6,10.3-2.5v8.1c-3.1,0-5.7,0.4-7.8,1.3
			c-2.2,0.8-3.9,2.1-5.2,3.7c-1.3,1.6-2.3,3.6-2.9,5.9c-0.6,2.3-0.9,5-0.9,7.9v20.7h-7.6V191.1z"/>
		<path class="st0" d="M558.1,222.8c-1,5.2-3.3,9.1-6.8,11.8c-3.5,2.7-7.9,4-13.1,4c-3.7,0-6.9-0.6-9.7-1.8c-2.7-1.2-5-2.9-6.9-5.1
			c-1.9-2.2-3.3-4.7-4.2-7.7c-0.9-3-1.5-6.3-1.6-9.8c0-3.5,0.5-6.7,1.6-9.7c1.1-3,2.6-5.5,4.5-7.7c1.9-2.2,4.3-3.8,6.9-5
			c2.7-1.2,5.6-1.8,8.8-1.8c4.1,0,7.6,0.9,10.3,2.6c2.7,1.7,4.9,3.9,6.6,6.5c1.6,2.6,2.8,5.5,3.4,8.6c0.6,3.1,0.9,6.1,0.8,8.9H524
			c-0.1,2,0.2,4,0.7,5.8c0.5,1.8,1.4,3.5,2.6,4.9c1.2,1.4,2.7,2.5,4.6,3.4c1.9,0.8,4.1,1.3,6.6,1.3c3.2,0,5.8-0.7,7.9-2.2
			c2.1-1.5,3.5-3.8,4.1-6.8H558.1z M550.8,209.9c-0.1-1.8-0.5-3.5-1.2-5.1c-0.7-1.6-1.6-3-2.8-4.2c-1.2-1.2-2.6-2.1-4.2-2.8
			c-1.6-0.7-3.4-1-5.2-1c-2,0-3.8,0.3-5.4,1c-1.6,0.7-3,1.6-4.1,2.8c-1.1,1.2-2,2.6-2.7,4.2c-0.7,1.6-1.1,3.3-1.2,5.1H550.8z"/>
		<path class="st0" d="M591.8,191.1h7.2v7.4h0.2c1.6-2.9,3.7-5,6.3-6.4c2.5-1.4,5.5-2.1,8.9-2.1c3.1,0,5.6,0.4,7.7,1.3
			c2,0.8,3.7,2,4.9,3.5c1.3,1.5,2.1,3.3,2.7,5.4c0.5,2.1,0.8,4.4,0.8,6.9v30.6h-7.6v-31.5c0-2.9-0.8-5.2-2.5-6.8
			c-1.7-1.7-4-2.5-6.9-2.5c-2.3,0-4.4,0.4-6.1,1.1s-3.1,1.7-4.3,3.1c-1.1,1.3-2,2.9-2.6,4.6c-0.6,1.8-0.9,3.7-0.9,5.8v26.3h-7.7
			V191.1z"/>
		<path class="st0" d="M640.7,204.8c1-3,2.4-5.5,4.3-7.7c1.9-2.2,4.3-3.9,7.1-5.2s6-1.9,9.8-1.9c3.7,0,6.9,0.6,9.7,1.9
			c2.8,1.3,5.2,3,7.1,5.2c1.9,2.2,3.4,4.8,4.3,7.7c1,3,1.4,6.2,1.4,9.6c0,3.4-0.5,6.6-1.4,9.5c-1,2.9-2.4,5.5-4.3,7.7
			c-1.9,2.2-4.3,3.9-7.1,5.2c-2.8,1.3-6.1,1.9-9.7,1.9c-3.7,0-7-0.6-9.8-1.9c-2.8-1.3-5.1-3-7.1-5.2c-1.9-2.2-3.4-4.8-4.3-7.7
			c-1-2.9-1.4-6.1-1.4-9.5C639.3,210.9,639.8,207.8,640.7,204.8z M648.5,221.9c0.7,2.2,1.8,4,3.1,5.5c1.3,1.5,2.9,2.6,4.6,3.4
			c1.8,0.8,3.6,1.2,5.6,1.2s3.9-0.4,5.6-1.2c1.8-0.8,3.3-1.9,4.6-3.4c1.3-1.5,2.4-3.3,3.1-5.5c0.7-2.2,1.1-4.7,1.1-7.5
			c0-2.8-0.4-5.3-1.1-7.5c-0.8-2.2-1.8-4-3.1-5.5c-1.3-1.5-2.9-2.6-4.6-3.4c-1.8-0.8-3.6-1.2-5.6-1.2s-3.9,0.4-5.6,1.2
			c-1.8,0.8-3.3,1.9-4.6,3.4c-1.3,1.5-2.4,3.3-3.1,5.5c-0.8,2.2-1.1,4.7-1.1,7.5C647.4,217.2,647.8,219.7,648.5,221.9z"/>
		<path class="st0" d="M732,237.6h-7.2v-7.4h-0.2c-1.6,2.9-3.7,5-6.3,6.4c-2.6,1.4-5.5,2.1-8.9,2.1c-3.1,0-5.6-0.4-7.6-1.3
			c-2-0.8-3.7-2-4.9-3.5c-1.3-1.5-2.1-3.3-2.7-5.4c-0.5-2.1-0.8-4.4-0.8-6.9v-30.6h7.7v31.5c0,2.9,0.8,5.2,2.5,6.8
			c1.7,1.7,4,2.5,6.9,2.5c2.3,0,4.4-0.4,6.1-1.1s3.1-1.7,4.3-3.1c1.1-1.3,2-2.9,2.6-4.6c0.6-1.8,0.9-3.7,0.9-5.8v-26.3h7.6V237.6z"
			/>
		<path class="st0" d="M748.2,222.9c0.1,1.7,0.5,3.2,1.2,4.3c0.7,1.1,1.7,2.1,2.8,2.7c1.2,0.7,2.5,1.2,4,1.5c1.5,0.3,3,0.4,4.5,0.4
			c1.2,0,2.5-0.1,3.8-0.3c1.3-0.2,2.5-0.5,3.6-1c1.1-0.5,2-1.2,2.7-2.1c0.7-0.9,1.1-2.1,1.1-3.6c0-1.5-0.4-2.7-1.3-3.6
			c-0.9-0.9-2-1.7-3.4-2.3c-1.4-0.6-3-1.1-4.9-1.5c-1.8-0.4-3.7-0.8-5.6-1.2c-1.9-0.4-3.8-0.9-5.6-1.5c-1.8-0.6-3.4-1.4-4.9-2.3
			c-1.4-1-2.6-2.2-3.5-3.7c-0.9-1.5-1.3-3.4-1.3-5.6c0-2.3,0.5-4.3,1.6-6c1-1.7,2.4-3,4-4.1c1.6-1,3.5-1.8,5.6-2.3
			c2.1-0.5,4.1-0.8,6.2-0.8c2.6,0,5,0.2,7.2,0.7c2.2,0.5,4.2,1.2,5.9,2.3c1.7,1.1,3.1,2.6,4.1,4.5c1,1.9,1.6,4.2,1.8,7.1h-7.6
			c-0.1-1.5-0.5-2.7-1.2-3.7c-0.7-1-1.5-1.8-2.5-2.4c-1-0.6-2.1-1-3.3-1.3c-1.2-0.3-2.5-0.4-3.7-0.4c-1.1,0-2.3,0.1-3.5,0.3
			c-1.2,0.2-2.2,0.5-3.2,0.9c-1,0.5-1.7,1.1-2.3,1.8c-0.6,0.8-0.9,1.7-0.9,2.9c0,1.4,0.5,2.5,1.4,3.3c0.9,0.8,2.1,1.5,3.6,2.1
			c1.4,0.6,3.1,1.1,4.9,1.4c1.8,0.4,3.6,0.8,5.4,1.2c1.9,0.4,3.8,0.9,5.6,1.5c1.8,0.6,3.4,1.4,4.9,2.4c1.4,1,2.5,2.2,3.4,3.7
			c0.9,1.5,1.3,3.4,1.3,5.6c0,2.8-0.6,5.1-1.8,7s-2.7,3.4-4.6,4.5c-1.9,1.1-4,2-6.4,2.4c-2.4,0.5-4.7,0.7-7.1,0.7
			c-2.6,0-5.1-0.3-7.4-0.9c-2.3-0.6-4.4-1.5-6.2-2.7c-1.8-1.2-3.2-2.8-4.3-4.9c-1.1-2-1.7-4.5-1.8-7.3H748.2z"/>
		<path class="st0" d="M790.2,227.6h10v9.1c0,3.4-0.8,6.4-2.3,8.9c-1.6,2.5-4.1,4.2-7.6,5.3v-4.5c1-0.4,1.9-0.9,2.6-1.5
			c0.7-0.7,1.2-1.4,1.6-2.2c0.4-0.8,0.7-1.7,0.9-2.6c0.2-0.9,0.2-1.7,0.2-2.4h-5.3V227.6z"/>
		<path class="st0" d="M870.2,206c-0.6-2.9-1.9-5.2-3.8-6.8c-2-1.6-4.5-2.4-7.7-2.4c-2.8,0-5.1,0.5-6.9,1.5c-1.9,1-3.3,2.4-4.5,4
			c-1.1,1.7-1.9,3.6-2.4,5.8c-0.5,2.2-0.7,4.5-0.7,6.8c0,2.2,0.3,4.3,0.8,6.3c0.5,2,1.3,3.9,2.4,5.4c1.1,1.6,2.5,2.9,4.2,3.8
			c1.7,1,3.8,1.4,6.3,1.4c3.7,0,6.7-1,8.8-3c2.2-2,3.5-4.8,4-8.3h7.8c-0.8,5.7-3,10.1-6.5,13.3c-3.5,3.2-8.2,4.8-14,4.8
			c-3.5,0-6.7-0.6-9.4-1.8c-2.7-1.2-5-2.8-6.8-4.9c-1.8-2.1-3.2-4.6-4.1-7.5c-0.9-2.9-1.4-6.1-1.4-9.6c0-3.5,0.4-6.7,1.3-9.8
			c0.9-3,2.3-5.7,4.1-7.9c1.8-2.2,4.1-4,6.8-5.3c2.7-1.3,6-1.9,9.7-1.9c2.6,0,5.1,0.3,7.4,0.9c2.3,0.6,4.4,1.6,6.2,2.9
			c1.8,1.3,3.3,3,4.4,5c1.1,2,1.8,4.4,2.1,7.2H870.2z"/>
		<path class="st0" d="M888.6,173.3h10v10c0,1.8-0.2,3.5-0.6,5.1c-0.4,1.6-1,3-1.8,4.2c-0.8,1.2-1.8,2.2-3.1,2.9
			c-1.2,0.7-2.7,1.1-4.5,1.1V192c1,0,1.9-0.3,2.5-0.8c0.7-0.5,1.2-1.2,1.6-2c0.4-0.8,0.7-1.8,0.9-2.8c0.1-1,0.2-2.1,0.2-3.1h-5.3
			V173.3z"/>
		<path class="st0" d="M951.6,222.8c-1,5.2-3.3,9.1-6.8,11.8c-3.5,2.7-7.9,4-13.1,4c-3.7,0-6.9-0.6-9.7-1.8c-2.7-1.2-5-2.9-6.9-5.1
			c-1.9-2.2-3.3-4.7-4.2-7.7c-0.9-3-1.5-6.3-1.6-9.8c0-3.5,0.5-6.7,1.6-9.7c1.1-3,2.6-5.5,4.5-7.7c1.9-2.2,4.3-3.8,6.9-5
			c2.7-1.2,5.6-1.8,8.8-1.8c4.1,0,7.6,0.9,10.3,2.6c2.7,1.7,4.9,3.9,6.6,6.5c1.6,2.6,2.8,5.5,3.4,8.6c0.6,3.1,0.9,6.1,0.8,8.9h-34.8
			c-0.1,2,0.2,4,0.7,5.8c0.5,1.8,1.4,3.5,2.6,4.9c1.2,1.4,2.7,2.5,4.6,3.4c1.9,0.8,4.1,1.3,6.6,1.3c3.2,0,5.8-0.7,7.9-2.2
			c2.1-1.5,3.5-3.8,4.1-6.8H951.6z M944.2,209.9c-0.1-1.8-0.5-3.5-1.2-5.1c-0.7-1.6-1.6-3-2.8-4.2c-1.2-1.2-2.6-2.1-4.2-2.8
			c-1.6-0.7-3.4-1-5.2-1c-2,0-3.8,0.3-5.4,1c-1.6,0.7-3,1.6-4.1,2.8c-1.1,1.2-2,2.6-2.7,4.2c-0.7,1.6-1.1,3.3-1.2,5.1H944.2z"/>
		<path class="st0" d="M964.9,222.9c0.1,1.7,0.5,3.2,1.2,4.3c0.7,1.1,1.7,2.1,2.8,2.7c1.2,0.7,2.5,1.2,4,1.5c1.5,0.3,3,0.4,4.5,0.4
			c1.2,0,2.5-0.1,3.8-0.3c1.3-0.2,2.5-0.5,3.6-1c1.1-0.5,2-1.2,2.7-2.1c0.7-0.9,1.1-2.1,1.1-3.6c0-1.5-0.4-2.7-1.3-3.6
			c-0.9-0.9-2-1.7-3.4-2.3c-1.4-0.6-3-1.1-4.9-1.5c-1.8-0.4-3.7-0.8-5.6-1.2c-1.9-0.4-3.8-0.9-5.6-1.5c-1.8-0.6-3.4-1.4-4.9-2.3
			c-1.4-1-2.6-2.2-3.5-3.7c-0.9-1.5-1.3-3.4-1.3-5.6c0-2.3,0.5-4.3,1.6-6c1-1.7,2.4-3,4-4.1c1.6-1,3.5-1.8,5.6-2.3
			c2.1-0.5,4.1-0.8,6.2-0.8c2.6,0,5,0.2,7.2,0.7c2.2,0.5,4.2,1.2,5.9,2.3c1.7,1.1,3.1,2.6,4.1,4.5c1,1.9,1.6,4.2,1.8,7.1h-7.6
			c-0.1-1.5-0.5-2.7-1.2-3.7c-0.7-1-1.5-1.8-2.5-2.4c-1-0.6-2.1-1-3.3-1.3c-1.2-0.3-2.5-0.4-3.7-0.4c-1.1,0-2.3,0.1-3.5,0.3
			c-1.2,0.2-2.2,0.5-3.2,0.9c-1,0.5-1.7,1.1-2.3,1.8c-0.6,0.8-0.9,1.7-0.9,2.9c0,1.4,0.5,2.5,1.4,3.3c0.9,0.8,2.1,1.5,3.6,2.1
			c1.4,0.6,3.1,1.1,4.9,1.4c1.8,0.4,3.6,0.8,5.4,1.2c1.9,0.4,3.8,0.9,5.6,1.5c1.8,0.6,3.4,1.4,4.9,2.4c1.4,1,2.5,2.2,3.4,3.7
			c0.9,1.5,1.3,3.4,1.3,5.6c0,2.8-0.6,5.1-1.8,7s-2.7,3.4-4.6,4.5c-1.9,1.1-4,2-6.4,2.4c-2.4,0.5-4.7,0.7-7.1,0.7
			c-2.6,0-5.1-0.3-7.4-0.9c-2.3-0.6-4.4-1.5-6.2-2.7c-1.8-1.2-3.2-2.8-4.3-4.9c-1.1-2-1.7-4.5-1.8-7.3H964.9z"/>
		<path class="st0" d="M1015.9,191.1h9.3v6.8h-9.3v28.9c0,0.9,0.1,1.6,0.2,2.2c0.1,0.5,0.4,1,0.9,1.3c0.4,0.3,1,0.5,1.8,0.6
			c0.7,0.1,1.7,0.1,2.9,0.1h3.5v6.8h-5.9c-2,0-3.7-0.1-5.1-0.4c-1.4-0.3-2.6-0.8-3.4-1.5c-0.9-0.7-1.5-1.7-1.9-3.1
			c-0.4-1.3-0.6-3.1-0.6-5.2v-29.6h-7.9v-6.8h7.9v-13.9h7.6V191.1z"/>
		<path class="st0" d="M1073.9,237.6h-9.7l-22.7-64.3h9.3l18.4,55.7h0.2l18.5-55.7h8.9L1073.9,237.6z"/>
		<path class="st0" d="M1094.4,204.8c1-3,2.4-5.5,4.3-7.7c1.9-2.2,4.3-3.9,7.1-5.2s6-1.9,9.8-1.9c3.7,0,6.9,0.6,9.7,1.9
			c2.8,1.3,5.2,3,7.1,5.2c1.9,2.2,3.4,4.8,4.3,7.7c1,3,1.4,6.2,1.4,9.6c0,3.4-0.5,6.6-1.4,9.5c-1,2.9-2.4,5.5-4.3,7.7
			c-1.9,2.2-4.3,3.9-7.1,5.2c-2.8,1.3-6.1,1.9-9.7,1.9c-3.7,0-7-0.6-9.8-1.9c-2.8-1.3-5.1-3-7.1-5.2c-1.9-2.2-3.4-4.8-4.3-7.7
			c-1-2.9-1.4-6.1-1.4-9.5C1093,210.9,1093.5,207.8,1094.4,204.8z M1102.2,221.9c0.7,2.2,1.8,4,3.1,5.5c1.3,1.5,2.9,2.6,4.6,3.4
			c1.8,0.8,3.6,1.2,5.6,1.2s3.9-0.4,5.6-1.2c1.8-0.8,3.3-1.9,4.6-3.4c1.3-1.5,2.4-3.3,3.1-5.5c0.7-2.2,1.1-4.7,1.1-7.5
			c0-2.8-0.4-5.3-1.1-7.5c-0.8-2.2-1.8-4-3.1-5.5c-1.3-1.5-2.9-2.6-4.6-3.4c-1.8-0.8-3.6-1.2-5.6-1.2s-3.9,0.4-5.6,1.2
			c-1.8,0.8-3.3,1.9-4.6,3.4c-1.3,1.5-2.4,3.3-3.1,5.5c-0.8,2.2-1.1,4.7-1.1,7.5C1101.1,217.2,1101.5,219.7,1102.2,221.9z"/>
		<path class="st0" d="M1185.7,237.6h-7.2v-7.4h-0.2c-1.6,2.9-3.7,5-6.3,6.4c-2.6,1.4-5.5,2.1-8.9,2.1c-3.1,0-5.6-0.4-7.6-1.3
			c-2-0.8-3.7-2-4.9-3.5c-1.3-1.5-2.1-3.3-2.7-5.4c-0.5-2.1-0.8-4.4-0.8-6.9v-30.6h7.7v31.5c0,2.9,0.8,5.2,2.5,6.8
			c1.7,1.7,4,2.5,6.9,2.5c2.3,0,4.4-0.4,6.1-1.1s3.1-1.7,4.3-3.1c1.1-1.3,2-2.9,2.6-4.6c0.6-1.8,0.9-3.7,0.9-5.8v-26.3h7.6V237.6z"
			/>
		<path class="st0" d="M1201.9,222.9c0.1,1.7,0.5,3.2,1.2,4.3c0.7,1.1,1.7,2.1,2.8,2.7c1.2,0.7,2.5,1.2,4,1.5c1.5,0.3,3,0.4,4.5,0.4
			c1.2,0,2.5-0.1,3.8-0.3c1.3-0.2,2.5-0.5,3.6-1c1.1-0.5,2-1.2,2.7-2.1c0.7-0.9,1.1-2.1,1.1-3.6c0-1.5-0.4-2.7-1.3-3.6
			c-0.9-0.9-2-1.7-3.4-2.3c-1.4-0.6-3-1.1-4.9-1.5c-1.8-0.4-3.7-0.8-5.6-1.2c-1.9-0.4-3.8-0.9-5.6-1.5c-1.8-0.6-3.4-1.4-4.9-2.3
			c-1.4-1-2.6-2.2-3.5-3.7c-0.9-1.5-1.3-3.4-1.3-5.6c0-2.3,0.5-4.3,1.6-6c1-1.7,2.4-3,4-4.1c1.6-1,3.5-1.8,5.6-2.3
			c2.1-0.5,4.1-0.8,6.2-0.8c2.6,0,5,0.2,7.2,0.7c2.2,0.5,4.2,1.2,5.9,2.3c1.7,1.1,3.1,2.6,4.1,4.5c1,1.9,1.6,4.2,1.8,7.1h-7.6
			c-0.1-1.5-0.5-2.7-1.2-3.7c-0.7-1-1.5-1.8-2.5-2.4c-1-0.6-2.1-1-3.3-1.3c-1.2-0.3-2.5-0.4-3.7-0.4c-1.1,0-2.3,0.1-3.5,0.3
			c-1.2,0.2-2.2,0.5-3.2,0.9c-1,0.5-1.7,1.1-2.3,1.8c-0.6,0.8-0.9,1.7-0.9,2.9c0,1.4,0.5,2.5,1.4,3.3c0.9,0.8,2.1,1.5,3.6,2.1
			c1.4,0.6,3.1,1.1,4.9,1.4c1.8,0.4,3.6,0.8,5.4,1.2c1.9,0.4,3.8,0.9,5.6,1.5c1.8,0.6,3.4,1.4,4.9,2.4c1.4,1,2.5,2.2,3.4,3.7
			c0.9,1.5,1.3,3.4,1.3,5.6c0,2.8-0.6,5.1-1.8,7s-2.7,3.4-4.6,4.5c-1.9,1.1-4,2-6.4,2.4c-2.4,0.5-4.7,0.7-7.1,0.7
			c-2.6,0-5.1-0.3-7.4-0.9c-2.3-0.6-4.4-1.5-6.2-2.7c-1.8-1.2-3.2-2.8-4.3-4.9c-1.1-2-1.7-4.5-1.8-7.3H1201.9z"/>
	</g>
	<g>
		<g>
			<rect x="361" y="34.1" class="st0" width="23.9" height="118"/>
			<path class="st0" d="M494.4,43.9c-3.4-3.9-7.8-7-13.2-9.2c-5.3-2.1-12-3.2-19.9-3.2c-8.7,0-16.5,1.8-23.1,5.3
				c-4.7,2.5-8.8,5.9-12.3,10.3v-13h-22.8v118H427V85.7c0-4.8,0.7-9.3,2-13.3c1.3-4,3.3-7.4,5.9-10.4c2.6-2.9,5.8-5.2,9.7-6.8
				c3.9-1.6,8.6-2.4,14.1-2.4c6.7,0,11.7,1.8,15.4,5.4c3.7,3.6,5.5,8.5,5.5,14.8v79h23.9V75.3c0-6.3-0.7-12.1-2-17.3
				C500.1,52.5,497.8,47.8,494.4,43.9z"/>
			<path class="st0" d="M552.1,0.2h-23.9v33.9h-19.6v21.4h19.6v69.4c0,5.6,0.6,10,1.7,13.4c1.2,3.7,3.1,6.5,5.6,8.6
				c2.5,2,5.7,3.4,9.6,4.1c3.6,0.7,8,1,13.1,1h17v-21.4h-11.2c-2.9,0-5.2-0.1-7-0.3c-1.4-0.2-2.5-0.5-3.2-1
				c-0.6-0.4-0.9-0.9-1.1-1.7c-0.3-1.1-0.5-2.6-0.5-4.6V55.5h23V34.1h-23V0.2z"/>
			<path class="st0" d="M679,54.7c-4.3-6.7-10-12.3-17.1-16.6c-7.1-4.4-16.2-6.6-26.8-6.6c-8.2,0-15.8,1.5-22.7,4.6
				c-6.9,3-13,7.4-18,12.8c-5,5.5-9,12-11.8,19.5c-2.8,7.5-4.2,15.6-4.2,24.4c0.3,8.8,1.7,17,4,24.5c2.4,7.6,6.1,14.2,10.9,19.7
				c4.8,5.5,10.9,9.9,17.9,13c7.1,3.1,15.5,4.7,25,4.7c13.6,0,25-3.5,34.1-10.3c9.1-6.9,15-17,17.7-30.1l0.6-3h-23.8l-0.4,2
				c-1.5,6.9-4.5,11.8-9.2,15.1c-4.7,3.3-10.9,5-18.2,5c-5.9,0-11-1-15.3-2.8c-4.2-1.9-7.8-4.4-10.5-7.5c-2.7-3.1-4.7-6.8-6-10.9
				c-1-3.4-1.6-7.1-1.7-10.9h86.1l0.1-2.4c0.3-7-0.4-14.5-1.9-22.2C686.2,68.7,683.3,61.3,679,54.7z M634,52.8c4.2,0,8.3,0.8,12,2.3
				c3.7,1.5,6.9,3.6,9.6,6.3c2.7,2.6,4.8,5.8,6.4,9.4c1.2,2.8,2.1,5.8,2.5,9h-60.6c0.4-3.1,1.2-6.1,2.4-8.9c1.5-3.6,3.6-6.7,6.2-9.4
				c2.6-2.7,5.7-4.8,9.3-6.3C625.3,53.6,629.5,52.8,634,52.8z"/>
			<path class="st0" d="M733.8,38c-5.1,3.3-9.6,8-13.5,13.9V34.1h-22.8v118h23.9V99.3c0-6.9,0.7-13.2,2.1-18.6
				c1.4-5.3,3.6-9.8,6.6-13.5c3-3.6,7-6.3,11.9-8.2c5-1.9,11.3-2.9,18.5-2.9h2.5V31.5l-2.4-0.1C749.9,31.2,740.9,33.4,733.8,38z"/>
			<rect x="822.9" y="34.1" class="st0" width="23.9" height="118"/>
			<path class="st0" d="M956.4,43.9c-3.4-3.9-7.8-7-13.2-9.2c-5.3-2.1-12-3.2-19.9-3.2c-8.7,0-16.5,1.8-23.1,5.3
				c-4.7,2.5-8.8,5.9-12.3,10.3v-13h-22.8v118H889V85.7c0-4.8,0.7-9.3,2-13.3c1.3-4,3.3-7.4,5.9-10.4c2.6-2.9,5.8-5.2,9.7-6.8
				c3.9-1.6,8.6-2.4,14.1-2.4c6.7,0,11.7,1.8,15.4,5.4c3.7,3.6,5.5,8.5,5.5,14.8v79h23.9V75.3c0-6.3-0.7-12.1-2-17.3
				C962.1,52.5,959.7,47.8,956.4,43.9z"/>
			<polygon class="st0" points="1054.3,34.1 1024.4,123.6 993.7,34.1 967.1,34.1 1011.8,152 1035.5,152 1079.5,34.1 			"/>
			<path class="st0" d="M1174.6,54.7c-4.3-6.7-10-12.3-17.1-16.6c-7.1-4.4-16.2-6.6-26.8-6.6c-8.2,0-15.8,1.5-22.7,4.6
				c-6.9,3-13,7.4-18,12.8c-5,5.5-9,12-11.8,19.5c-2.8,7.5-4.2,15.6-4.2,24.4c0.3,8.8,1.7,17,4,24.5c2.4,7.6,6.1,14.2,10.9,19.7
				c4.8,5.5,10.9,9.9,17.9,13c7.1,3.1,15.5,4.7,25,4.7c13.6,0,25-3.5,34.1-10.3c9.1-6.9,15-17,17.7-30.1l0.6-3h-23.8l-0.4,2
				c-1.5,6.9-4.5,11.8-9.2,15.1c-4.7,3.3-10.9,5-18.2,5c-5.9,0-11-1-15.3-2.8c-4.2-1.9-7.8-4.4-10.5-7.5c-2.7-3.1-4.7-6.8-6-10.9
				c-1-3.4-1.6-7.1-1.7-10.9h86.1l0.1-2.4c0.3-7-0.4-14.5-1.9-22.2C1181.8,68.7,1178.9,61.3,1174.6,54.7z M1129.6,52.8
				c4.2,0,8.3,0.8,12,2.3c3.7,1.5,6.9,3.6,9.6,6.3c2.7,2.6,4.8,5.8,6.4,9.4c1.2,2.8,2.1,5.8,2.5,9h-60.6c0.4-3.1,1.2-6.1,2.4-8.9
				c1.5-3.6,3.6-6.7,6.2-9.4c2.6-2.7,5.7-4.8,9.3-6.3C1121,53.6,1125.1,52.8,1129.6,52.8z"/>
			<path class="st0" d="M1276.5,91.9c-3.7-2.5-7.9-4.6-12.7-6.1c-4.6-1.5-9.4-2.7-14.1-3.8c-4.4-1-9-2-13.4-3
				c-4.3-0.9-8.2-2.1-11.6-3.4c-3.3-1.3-6-2.8-8.1-4.7c-1.8-1.6-2.6-3.6-2.6-6.2c0-2.2,0.6-4,1.7-5.4c1.2-1.6,2.9-2.8,4.9-3.8
				c2.1-1,4.6-1.7,7.2-2.1c5.8-0.9,11.4-0.9,16.9,0.3c2.8,0.6,5.3,1.6,7.5,2.9c2.1,1.3,4,3,5.5,5.1c1.4,2,2.3,4.7,2.6,7.8l0.2,2.3
				h23.9l-0.2-2.7c-0.5-7.2-2.1-13.3-4.8-18.2c-2.7-4.9-6.4-8.9-11-11.8c-4.5-2.9-9.7-4.9-15.6-6c-5.7-1.1-11.9-1.7-18.4-1.7
				c-5.2,0-10.5,0.6-15.9,1.9c-5.4,1.3-10.3,3.3-14.6,6c-4.4,2.7-8,6.3-10.8,10.7c-2.8,4.5-4.3,9.8-4.3,16c0,5.8,1.2,10.8,3.6,14.8
				c2.3,4,5.5,7.2,9.4,9.8c3.7,2.4,8,4.4,12.6,6c4.5,1.5,9.3,2.8,14.1,3.8c4.8,1,9.4,2,13.9,3c4.4,0.9,8.3,2.1,11.6,3.5
				c3.2,1.3,5.7,3,7.6,5c1.7,1.8,2.5,4.1,2.5,7.1c0,2.9-0.7,5.3-2.1,7.1c-1.5,1.9-3.4,3.4-5.8,4.4c-2.5,1.1-5.3,1.8-8.4,2.2
				c-3.1,0.4-6.2,0.6-9,0.6c-3.7,0-7.3-0.4-10.8-1c-3.4-0.7-6.4-1.8-9-3.3c-2.5-1.5-4.6-3.4-6.2-5.9c-1.5-2.4-2.4-5.5-2.5-9.2
				l-0.1-2.4h-24l0.1,2.6c0.3,7.3,1.9,13.7,4.8,18.9c2.9,5.2,6.7,9.5,11.5,12.7c4.7,3.1,10.1,5.5,16.1,6.9c5.9,1.4,12.3,2.1,19,2.1
				c5.9,0,12-0.6,18-1.8c6.1-1.2,11.7-3.3,16.6-6.2c5-3,9.1-6.9,12.2-11.9c3.1-5,4.7-11.1,4.7-18.3c0-5.8-1.2-10.8-3.6-14.8
				C1283.3,97.8,1280.2,94.5,1276.5,91.9z"/>
			<path class="st0" d="M1353.2,55.5V34.1h-23V0.2h-23.9v33.9h-19.6v21.4h19.6v69.4c0,5.6,0.6,10,1.7,13.4c1.2,3.7,3.1,6.5,5.6,8.6
				c2.5,2,5.7,3.4,9.6,4.1c3.6,0.7,8,1,13.1,1h17v-21.4H1342c-2.9,0-5.2-0.1-7-0.3c-1.4-0.2-2.5-0.5-3.2-1c-0.6-0.4-0.9-0.9-1.1-1.7
				c-0.3-1.1-0.5-2.6-0.5-4.6V55.5H1353.2z"/>
		</g>
	</g>
	<path class="st0" d="M217.2,0.2H43.7C20,0.2,0.8,19.4,0.8,43.1v173.5c0,23.7,19.2,42.9,42.9,42.9h173.5c23.7,0,42.9-19.2,42.9-42.9
		V43.1C260.1,19.4,240.9,0.2,217.2,0.2z M78.3,192.2L78.3,192.2c-10-3.6-15.1-14.7-11.5-24.7L99,79.1c3.6-10,14.7-15.1,24.7-11.5
		l0,0c10,3.6,15.1,14.7,11.5,24.7L103,180.7C99.4,190.7,88.3,195.9,78.3,192.2z M194.1,92.2l-32.2,88.5c-3.6,10-14.7,15.1-24.7,11.5
		l0,0c-10-3.6-15.1-14.7-11.5-24.7l32.2-88.5c3.6-10,14.7-15.1,24.7-11.5l0,0C192.6,71.2,197.7,82.2,194.1,92.2z"/>
</g>
</svg>
